<svg id="Calendar" xmlns="http://www.w3.org/2000/svg" width="30" height="33.333" viewBox="0 0 30 33.333">
  <path id="Calendar-2" data-name="Calendar" d="M9.377,33.333C3.159,33.333,0,30.518,0,24.975V11.192C0,7.874,1.131,5.5,3.45,4.115a1.142,1.142,0,0,1,1.22-.045,1.188,1.188,0,0,1-.118,2.109C3.015,7.092,2.29,8.685,2.29,11.192v.441H23.434a1.165,1.165,0,0,1,0,2.33H2.29V24.975c0,4.23,2.058,5.985,7.086,6.015H20.624c4.956,0,7.072-1.8,7.072-6.03V11.177c0-3.686-1.609-5.471-5.275-5.9V6.4a1.157,1.157,0,0,1-2.3-.089V1.122a1.166,1.166,0,0,1,.37-.816,1.128,1.128,0,0,1,.833-.3,1.187,1.187,0,0,1,1.1,1.224V2.951C27.435,3.437,30,6.209,30,11.192V24.975c0,5.543-3.159,8.358-9.376,8.358Zm11.16-8.2a1.461,1.461,0,0,1,1.449-1.475h-.015a1.438,1.438,0,0,1,1.035.426,1.49,1.49,0,0,1,.429,1.049,1.449,1.449,0,1,1-2.9,0Zm-6.957,0a1.45,1.45,0,1,1,1.449,1.475A1.462,1.462,0,0,1,13.58,25.137Zm-6.942,0a1.462,1.462,0,0,1,1.449-1.475H8.073a1.435,1.435,0,0,1,1.033.426,1.483,1.483,0,0,1,.429,1.049,1.449,1.449,0,1,1-2.9,0Zm13.9-5.972a1.461,1.461,0,0,1,1.449-1.473h-.015a1.432,1.432,0,0,1,1.035.426,1.489,1.489,0,0,1,.429,1.047,1.449,1.449,0,1,1-2.9,0Zm-6.957,0a1.45,1.45,0,1,1,1.449,1.475A1.462,1.462,0,0,1,13.58,19.166Zm-6.942,0a1.462,1.462,0,0,1,1.449-1.473H8.073a1.429,1.429,0,0,1,1.033.426,1.482,1.482,0,0,1,.429,1.047,1.449,1.449,0,1,1-2.9,0ZM8.7,7.491A1.157,1.157,0,0,1,7.579,6.311V1.226a1.157,1.157,0,0,1,2.3,0V2.832h6.552a1.165,1.165,0,0,1,0,2.33H9.855V6.326a1.177,1.177,0,0,1-.34.83,1.138,1.138,0,0,1-.808.336Z" transform="translate(0 0)" fill="#fff"/>
</svg>
