<svg id="Iconly_Broken_Location" data-name="Iconly/Broken/Location" xmlns="http://www.w3.org/2000/svg" width="24" height="24" viewBox="0 0 24 24">
  <g id="Location" transform="translate(3.5 2)">
    <path id="Combined_Shape" data-name="Combined Shape" d="M7.856,19.879a23.973,23.973,0,0,1-5.7-5.3A10.6,10.6,0,0,1,0,8.513,8.516,8.516,0,0,1,8.5,0h.033A8.5,8.5,0,0,1,17,8.522v.094c-.064,3.344-2.075,6.12-3.749,7.859a20.427,20.427,0,0,1-1.508,1.42.746.746,0,0,1-.968-1.134,19.168,19.168,0,0,0,1.4-1.319c1.49-1.547,3.279-3.992,3.333-6.854a7.027,7.027,0,0,0-6.979-7.1H8.5A7.01,7.01,0,0,0,1.493,8.461a9.119,9.119,0,0,0,1.859,5.225A22.377,22.377,0,0,0,8.672,18.63a.746.746,0,0,1-.815,1.249ZM5.262,8.614a.747.747,0,0,1,1.493,0A1.742,1.742,0,1,0,8.5,6.873a.745.745,0,1,1,0-1.49,3.23,3.23,0,1,1-3.235,3.23Z" fill="#ffffff"/>
  </g>
</svg>
