<svg id="smile" xmlns="http://www.w3.org/2000/svg" width="35.113" height="34.224" viewBox="0 0 35.113 34.224">
  <path id="Path_53" data-name="Path 53" d="M317.685,802.858c-.435-3.325-1.611-5.671-3.493-6.97-2.326-1.608-5.019-1.934-7.4-2.222l-.487-.059a46.329,46.329,0,0,0-14.822.478,15.374,15.374,0,0,0-3.391.994h0a7.484,7.484,0,0,0-3.259,2.655c-1.225,1.842-1.486,4.215-1.635,6.3-.157,2.185-.309,4.78-.248,7.455.023,1,.054,2.166.134,3.325a19.084,19.084,0,0,0,1.735,7.473,8.255,8.255,0,0,0,6.617,4.329,62.347,62.347,0,0,0,8.747.836h.191a48.652,48.652,0,0,0,8.766-.9c2.3-.417,4.656-1.054,6.313-2.88,1.788-1.969,2.122-4.858,2.31-7.65A67.024,67.024,0,0,0,317.685,802.858Zm-2.1,13.015c-.163,2.406-.433,4.877-1.746,6.325-1.279,1.409-3.295,1.872-5.082,2.2a48.711,48.711,0,0,1-8.555.859,60.4,60.4,0,0,1-8.44-.813c-2.525-.371-4.02-1.322-5-3.18a17.154,17.154,0,0,1-1.488-6.6c-.076-1.114-.106-2.25-.128-3.226-.059-2.585.089-5.115.242-7.248a11.264,11.264,0,0,1,1.273-5.239,5.276,5.276,0,0,1,2.33-1.868,13.334,13.334,0,0,1,2.907-.84,44.233,44.233,0,0,1,14.136-.457l.5.061c2.228.27,4.533.549,6.413,1.849,1.35.932,2.213,2.767,2.566,5.453A65.209,65.209,0,0,1,315.583,815.874Z" transform="translate(-282.941 -793.224)" fill="#2e2842"/>
  <path id="Path_54" data-name="Path 54" d="M299.01,811.689a2.042,2.042,0,1,0-2.042-2.042A2.044,2.044,0,0,0,299.01,811.689Zm0-2.192a.151.151,0,0,1,.15.151c0,.166-.3.166-.3,0A.151.151,0,0,1,299.01,809.5Z" transform="translate(-286.718 -797.097)" fill="#2e2842"/>
  <path id="Path_55" data-name="Path 55" d="M313.422,811.689a2.042,2.042,0,1,0-2.042-2.042A2.044,2.044,0,0,0,313.422,811.689Zm0-2.192a.151.151,0,0,1,.151.151c0,.166-.3.166-.3,0A.151.151,0,0,1,313.422,809.5Z" transform="translate(-290.599 -797.097)" fill="#2e2842"/>
  <path id="Path_56" data-name="Path 56" d="M310.95,819.143l-1.561,1.26a9.277,9.277,0,0,1-11.715-.08l-1.411-1.171a1.1,1.1,0,1,0-1.4,1.687l1.411,1.171a11.476,11.476,0,0,0,14.491.1l1.562-1.26a1.1,1.1,0,1,0-1.377-1.706Z" transform="translate(-286.045 -800.138)" fill="#2e2842"/>
</svg>
